<svg width="25" height="26" viewBox="0 0 25 26" fill="none" xmlns="http://www.w3.org/2000/svg">
<path d="M24 12.2512L13.1261 22.9525C11.794 24.2635 9.98724 25 8.10332 25C6.2194 25 4.41265 24.2635 3.08051 22.9525C1.74838 21.6415 1 19.8634 1 18.0094C1 16.1554 1.74838 14.3773 3.08051 13.0663L13.9544 2.365C14.8425 1.491 16.047 1 17.3029 1C18.5589 1 19.7634 1.491 20.6515 2.365C21.5395 3.23899 22.0385 4.42438 22.0385 5.6604C22.0385 6.89641 21.5395 8.0818 20.6515 8.9558L9.76576 19.6571C9.32171 20.0941 8.71946 20.3396 8.09149 20.3396C7.46352 20.3396 6.86126 20.0941 6.41722 19.6571C5.97318 19.2201 5.72371 18.6274 5.72371 18.0094C5.72371 17.3914 5.97318 16.7987 6.41722 16.3617L16.4628 6.48716" stroke="white" stroke-width="2" stroke-linecap="round" stroke-linejoin="round"/>
</svg>
