<svg width="24" height="24" viewBox="0 0 24 24" fill="none" xmlns="http://www.w3.org/2000/svg">
<path d="M21 11.4384L12.8446 19.4644C11.8455 20.4476 10.4904 21 9.07749 21C7.66455 21 6.30949 20.4476 5.31038 19.4644C4.31128 18.4811 3.75 17.1475 3.75 15.757C3.75 14.3665 4.31128 13.033 5.31038 12.0497L13.4658 4.02375C14.1319 3.36825 15.0353 3 15.9772 3C16.9192 3 17.8226 3.36825 18.4886 4.02375C19.1546 4.67924 19.5289 5.56828 19.5289 6.4953C19.5289 7.42231 19.1546 8.31135 18.4886 8.96685L10.3243 16.9928C9.99128 17.3206 9.53959 17.5047 9.06862 17.5047C8.59764 17.5047 8.14595 17.3206 7.81292 16.9928C7.47989 16.6651 7.29278 16.2205 7.29278 15.757C7.29278 15.2935 7.47989 14.849 7.81292 14.5213L15.3471 7.11537" stroke="white" stroke-width="1.5" stroke-linecap="round" stroke-linejoin="round"/>
</svg>
