<svg width="32" height="32" viewBox="0 0 32 32" fill="none" xmlns="http://www.w3.org/2000/svg">
<path d="M4 8H6.66667H28" stroke="white" stroke-width="2" stroke-linecap="round" stroke-linejoin="round"/>
<path d="M25.3333 8.00002V26.6667C25.3333 27.3739 25.0523 28.0522 24.5522 28.5523C24.0521 29.0524 23.3739 29.3334 22.6666 29.3334H9.33329C8.62605 29.3334 7.94777 29.0524 7.44767 28.5523C6.94758 28.0522 6.66663 27.3739 6.66663 26.6667V8.00002M10.6666 8.00002V5.33335C10.6666 4.62611 10.9476 3.94783 11.4477 3.44774C11.9478 2.94764 12.626 2.66669 13.3333 2.66669H18.6666C19.3739 2.66669 20.0521 2.94764 20.5522 3.44774C21.0523 3.94783 21.3333 4.62611 21.3333 5.33335V8.00002" stroke="white" stroke-width="2" stroke-linecap="round" stroke-linejoin="round"/>
</svg>
