<svg width="24" height="24" viewBox="0 0 24 24" fill="none" xmlns="http://www.w3.org/2000/svg">
<g clip-path="url(#clip0_563_1026)">
<path fill-rule="evenodd" clip-rule="evenodd" d="M12 0C5.37258 0 0 5.37258 0 12C0 18.6274 5.37258 24 12 24C18.6274 24 24 18.6274 24 12C24 5.37258 18.6274 0 12 0ZM11.2285 17.3439C11.1686 17.5567 11.0701 17.7114 10.933 17.8081C10.8045 17.9048 10.6589 17.9531 10.4962 17.9531C10.342 17.9531 10.2007 17.9048 10.0722 17.8081C9.94372 17.721 9.8495 17.5953 9.78955 17.431C9.72959 17.2666 9.73387 17.0683 9.80239 16.8363L12.706 6.61041C12.766 6.39767 12.8645 6.24295 13.0015 6.14626C13.1386 6.03989 13.2799 5.99154 13.4255 6.00121C13.5797 6.00121 13.721 6.04956 13.8495 6.14626C13.9866 6.23328 14.0851 6.35899 14.145 6.52338C14.205 6.6781 14.2007 6.87149 14.1322 7.10357L11.2285 17.3439ZM7.32776 16.1835L2.38129 13.9063C1.91876 13.6936 1.6875 13.3213 1.6875 12.7894C1.6875 12.5283 1.74317 12.3108 1.85452 12.1367C1.97444 11.953 2.15003 11.8079 2.38129 11.7016L7.32776 9.40983C7.49906 9.33247 7.64896 9.3228 7.77744 9.38082C7.91448 9.42916 8.02155 9.51619 8.09863 9.6419C8.18429 9.76761 8.2314 9.91266 8.23996 10.077C8.24853 10.2318 8.21855 10.3816 8.15003 10.5267C8.0815 10.6621 7.96587 10.7684 7.80313 10.8458L3.47359 12.8055L7.80313 14.7766C7.96587 14.8539 8.0815 14.9651 8.15003 15.1102C8.21855 15.2456 8.24853 15.3906 8.23996 15.5453C8.2314 15.7001 8.18429 15.8403 8.09863 15.966C8.02155 16.0917 7.91448 16.1787 7.77744 16.2271C7.64896 16.2754 7.49906 16.2609 7.32776 16.1835ZM16.1628 16.2271C16.2999 16.2754 16.4541 16.2609 16.6254 16.1835L21.5718 13.9063C21.8031 13.7903 21.9744 13.6404 22.0858 13.4567C22.2057 13.2729 22.2656 13.0505 22.2656 12.7894C22.2656 12.2769 22.0344 11.9143 21.5718 11.7016L16.6254 9.40983C16.4541 9.33247 16.2999 9.3228 16.1628 9.38082C16.0258 9.42916 15.9187 9.51619 15.8416 9.6419C15.7646 9.76761 15.7174 9.91266 15.7003 10.077C15.6917 10.2318 15.7217 10.3816 15.7902 10.5267C15.8673 10.6621 15.9873 10.7684 16.15 10.8458L20.4795 12.8055L16.15 14.7766C15.9873 14.8539 15.8673 14.9651 15.7902 15.1102C15.7217 15.2456 15.6917 15.3906 15.7003 15.5453C15.7174 15.7001 15.7646 15.8403 15.8416 15.966C15.9187 16.0917 16.0258 16.1787 16.1628 16.2271Z" fill="#838383"/>
</g>
<defs>
<clipPath id="clip0_563_1026">
<rect width="24" height="24" fill="white"/>
</clipPath>
</defs>
</svg>
